<svg width="97" height="99" viewBox="0 0 97 99" fill="none" xmlns="http://www.w3.org/2000/svg">
<g filter="url(#filter0_d)">
<path d="M24.9521 43.27H17.3301V64H12.2031V43.27H4.68359V39.1172H24.9521V43.27Z" fill="white"/>
<rect x="4" y="20" width="4" height="14" fill="white"/>
<rect width="4.4173" height="46.1712" transform="matrix(0.851787 0.523888 -0.901451 0.432882 45.6211 0.116699)" fill="white"/>
<rect width="4.57975" height="46.7355" transform="matrix(-0.879702 0.475526 -0.877553 -0.47948 86.2814 22.6646)" fill="white"/>
<rect width="4.33736" height="41.2646" transform="matrix(-0.999972 -0.00746825 0.0252788 -0.99968 85.5421 64.1238)" fill="white"/>
<rect width="3.08827" height="59.9493" transform="matrix(0.0104782 -0.999945 0.999995 0.00309487 25.575 64.7075)" fill="white"/>
<rect x="37" y="19" width="7" height="3" fill="white"/>
<rect x="46" y="19" width="6" height="3" fill="white"/>
<rect x="46" y="23" width="6" height="3" fill="white"/>
<rect x="37" y="23" width="7" height="3" fill="white"/>
<path d="M22.6943 90H18.8857V82.0781H11.459V90H7.65039V71.5156H11.459V79.0059H18.8857V71.5156H22.6943V90ZM41.2168 81.1768C41.2168 82.9964 40.8952 84.5918 40.252 85.9629C39.6087 87.334 38.6862 88.3919 37.4844 89.1367C36.291 89.8815 34.9199 90.2539 33.3711 90.2539C31.8392 90.2539 30.4723 89.8857 29.2705 89.1494C28.0687 88.4131 27.1377 87.3636 26.4775 86.001C25.8174 84.6299 25.4831 83.0557 25.4746 81.2783V80.3643C25.4746 78.5446 25.8005 76.945 26.4521 75.5654C27.1123 74.1774 28.0391 73.1152 29.2324 72.3789C30.4342 71.6341 31.8053 71.2617 33.3457 71.2617C34.8861 71.2617 36.2529 71.6341 37.4463 72.3789C38.6481 73.1152 39.5749 74.1774 40.2266 75.5654C40.8867 76.945 41.2168 78.5404 41.2168 80.3516V81.1768ZM37.3574 80.3389C37.3574 78.4007 37.0104 76.9281 36.3164 75.9209C35.6224 74.9137 34.6322 74.4102 33.3457 74.4102C32.0677 74.4102 31.0817 74.9095 30.3877 75.9082C29.6937 76.8984 29.3424 78.3542 29.334 80.2754V81.1768C29.334 83.0641 29.681 84.5283 30.375 85.5693C31.069 86.6104 32.0677 87.1309 33.3711 87.1309C34.6491 87.1309 35.6309 86.6315 36.3164 85.6328C37.002 84.6257 37.349 83.1615 37.3574 81.2402V80.3389ZM56.8066 74.6006H51.1445V90H47.3359V74.6006H41.75V71.5156H56.8066V74.6006ZM70.1113 81.9893H62.7988V86.9404H71.3809V90H58.9902V71.5156H71.3555V74.6006H62.7988V79.0059H70.1113V81.9893ZM77.4238 86.9404H85.5107V90H73.6152V71.5156H77.4238V86.9404Z" fill="white"/>
</g>
<defs>
<filter id="filter0_d" x="0" y="0.116699" width="90.5852" height="98.1372" filterUnits="userSpaceOnUse" color-interpolation-filters="sRGB">
<feFlood flood-opacity="0" result="BackgroundImageFix"/>
<feColorMatrix in="SourceAlpha" type="matrix" values="0 0 0 0 0 0 0 0 0 0 0 0 0 0 0 0 0 0 127 0"/>
<feOffset dy="4"/>
<feGaussianBlur stdDeviation="2"/>
<feColorMatrix type="matrix" values="0 0 0 0 0 0 0 0 0 0 0 0 0 0 0 0 0 0 0.25 0"/>
<feBlend mode="normal" in2="BackgroundImageFix" result="effect1_dropShadow"/>
<feBlend mode="normal" in="SourceGraphic" in2="effect1_dropShadow" result="shape"/>
</filter>
</defs>
</svg>
